<svg xmlns="http://www.w3.org/2000/svg" xmlns:xlink="http://www.w3.org/1999/xlink" viewBox="0 0 1000 1000"><defs><style>.cls-1{isolation:isolate;}.cls-2{fill:url(#linear-gradient);}.cls-3{opacity:0;mix-blend-mode:multiply;}.cls-4{fill:#ebebeb;}</style><linearGradient id="linear-gradient" x1="231.07" y1="612.7" x2="568.82" y2="334.04" gradientTransform="matrix(1.14, 0, 0, 1.03, -20.3, -6.87)" gradientUnits="userSpaceOnUse"><stop offset="0" stop-color="#13618a"/><stop offset="0.17" stop-color="#277e7e"/><stop offset="0.37" stop-color="#399874"/><stop offset="0.57" stop-color="#47ab6c"/><stop offset="0.78" stop-color="#4eb667"/><stop offset="1" stop-color="#51ba66"/></linearGradient></defs><g class="cls-1"><g id="Layer_1" data-name="Layer 1"><path class="cls-2" d="M546.26,631.85c-65.58,79.92-377.16,59.43-377.16,59.43s53.23-262.19,120.68-342.1c66.78-79.12,377.51-61.29,377.51-61.29S607,557.82,546.26,631.85Z"/><g class="cls-3"><path d="M506.55,367.16h0a46.72,46.72,0,0,0-63.82,17.1l-11.88,20.57a46.74,46.74,0,0,0,5.93,54.84L341.46,624.76a14.43,14.43,0,0,0,3.65,18.8,14.17,14.17,0,0,0,20.71-4.31l95.5-165.41a46.74,46.74,0,0,0,50.46-22.29L523.65,431A46.73,46.73,0,0,0,506.55,367.16Z"/></g><path class="cls-4" d="M506.55,367.16h0a46.72,46.72,0,0,0-63.82,17.1l-11.88,20.57a46.74,46.74,0,0,0,5.93,54.84L341.46,624.76a14.43,14.43,0,0,0,3.65,18.8,14.17,14.17,0,0,0,20.71-4.31l95.5-165.41a46.74,46.74,0,0,0,50.46-22.29L523.65,431A46.73,46.73,0,0,0,506.55,367.16Z"/><g class="cls-3"><path d="M366.12,351.09a7.39,7.39,0,0,0-2.71,10.11L395,415.84,373.73,428.1l-31.55-54.65a7.41,7.41,0,0,0-10.11-2.71h0a7.4,7.4,0,0,0-2.71,10.11l31.55,54.65-21.23,12.25-31.55-54.64a7.4,7.4,0,0,0-12.82,7.4L327.37,456a7.91,7.91,0,0,0,.44.68,46.72,46.72,0,0,0,49.5,20.73l95.48,165.38A14.16,14.16,0,0,0,492.14,648h0a14.18,14.18,0,0,0,5.19-19.36L401.85,463.27a46.74,46.74,0,0,0,6.8-53.23,6.1,6.1,0,0,0-.37-.72l-32-55.53A7.39,7.39,0,0,0,366.12,351.09Z"/></g><path class="cls-4" d="M366.12,351.09a7.39,7.39,0,0,0-2.71,10.11L395,415.84,373.73,428.1l-31.55-54.65a7.41,7.41,0,0,0-10.11-2.71h0a7.4,7.4,0,0,0-2.71,10.11l31.55,54.65-21.23,12.25-31.55-54.64a7.4,7.4,0,0,0-12.82,7.4L327.37,456a7.91,7.91,0,0,0,.44.68,46.72,46.72,0,0,0,49.5,20.73l95.48,165.38A14.16,14.16,0,0,0,492.14,648h0a14.18,14.18,0,0,0,5.19-19.36L401.85,463.27a46.74,46.74,0,0,0,6.8-53.23,6.1,6.1,0,0,0-.37-.72l-32-55.53A7.39,7.39,0,0,0,366.12,351.09Z"/></g></g></svg>